<svg width="621" height="575" viewBox="0 0 621 575" fill="none" xmlns="http://www.w3.org/2000/svg">
<rect width="620.337" height="573.739" transform="translate(0.663086 0.584473)" fill="white"/>
<path d="M439.855 263.095C449.036 284.496 452.737 307.849 450.623 331.04C448.508 354.232 440.646 376.53 427.746 395.918C414.846 415.306 397.316 431.173 376.742 442.082C356.168 452.991 333.198 458.599 309.911 458.398C286.625 458.198 263.755 452.195 243.372 440.932C222.989 429.67 205.736 413.503 193.172 393.896C180.608 374.288 173.131 351.857 171.417 328.633C169.703 305.408 173.806 282.123 183.355 260.883L189.874 263.814C180.813 283.97 176.919 306.067 178.546 328.106C180.172 350.146 187.268 371.432 199.19 390.039C211.113 408.647 227.486 423.988 246.829 434.676C266.172 445.364 287.875 451.06 309.973 451.251C332.072 451.442 353.869 446.12 373.393 435.767C392.918 425.415 409.553 410.358 421.795 391.959C434.037 373.56 441.498 352.399 443.505 330.391C445.511 308.383 441.999 286.222 433.287 265.913L439.855 263.095Z" fill="black"/>
<path d="M320.829 132.816L320.834 132.821L442.352 253.968L397.967 298.353L350.155 250.541L342.076 242.462V253.888V450.118C331.708 452.644 310.441 457.041 279.3 450.074V253.411V241.985L271.22 250.064L223.342 297.943L178.952 253.553L310.205 122.299L320.822 132.809L320.829 132.816Z" stroke="black" stroke-width="9.46523"/>
</svg>
