<svg width="621" height="574" viewBox="0 0 621 574" fill="none" xmlns="http://www.w3.org/2000/svg">
<rect width="620.337" height="573.739" transform="translate(0.663086)" fill="white"/>
<path d="M439.855 262.51C449.036 283.912 452.737 307.264 450.623 330.456C448.508 353.647 440.646 375.945 427.746 395.334C414.846 414.722 397.316 430.588 376.742 441.498C356.168 452.407 333.198 458.015 309.911 457.814C286.625 457.613 263.755 451.61 243.372 440.348C222.989 429.085 205.736 412.919 193.172 393.311C180.608 373.703 173.131 351.273 171.417 328.048C169.703 304.824 173.806 281.538 183.355 260.298L189.874 263.229C180.813 283.385 176.919 305.483 178.546 327.522C180.172 349.561 187.268 370.847 199.19 389.455C211.113 408.062 227.486 423.404 246.829 434.091C266.172 444.779 287.875 450.476 309.973 450.667C332.072 450.857 353.869 445.535 373.393 435.183C392.918 424.83 409.553 409.773 421.795 391.374C434.037 372.975 441.498 351.815 443.505 329.807C445.511 307.799 441.999 285.638 433.287 265.328L439.855 262.51Z" fill="#7A7A7A"/>
<path d="M320.829 132.231L320.834 132.236L442.352 253.383L397.967 297.768L350.155 249.957L342.076 241.878V253.303V449.533C331.708 452.06 310.441 456.456 279.3 449.49V252.826V241.401L271.22 249.48L223.342 297.359L178.952 252.969L310.205 121.715L320.822 132.224L320.829 132.231Z" stroke="#7A7A7A" stroke-width="9.46523"/>
</svg>
